solid AutoCAD
   facet normal -0.0000000e+00 -1.0000000e+00 -0.0000000e+00
      outer loop
         vertex 2.0600001e+01 1.0000000e-06 2.0000001e+01
         vertex 9.9999988e-07 1.0000000e-06 2.0000001e+01
         vertex 2.0600001e+01 1.0000000e-06 1.0000000e-06
      endloop
   endfacet
   facet normal -0.0000000e+00 -1.0000000e+00 -0.0000000e+00
      outer loop
         vertex 2.0600001e+01 1.0000000e-06 1.0000000e-06
         vertex 9.9999988e-07 1.0000000e-06 2.0000001e+01
         vertex 9.9999988e-07 1.0000000e-06 1.0000000e-06
      endloop
   endfacet
   facet normal 1.0000000e+00 0.0000000e+00 -0.0000000e+00
      outer loop
         vertex 2.0600001e+01 1.0000000e-06 1.0000000e-06
         vertex 2.0600001e+01 2.0600001e+01 1.0000000e-06
         vertex 2.0600001e+01 1.0000000e-06 2.0000001e+01
      endloop
   endfacet
   facet normal 1.0000000e+00 -0.0000000e+00 0.0000000e+00
      outer loop
         vertex 2.0600001e+01 1.0000000e-06 2.0000001e+01
         vertex 2.0600001e+01 2.0600001e+01 1.0000000e-06
         vertex 2.0600001e+01 2.0600001e+01 2.0000001e+01
      endloop
   endfacet
   facet normal -1.0000000e+00 0.0000000e+00 0.0000000e+00
      outer loop
         vertex 9.9999988e-07 2.0600001e+01 1.0000000e-06
         vertex 9.9999988e-07 1.0000000e-06 1.0000000e-06
         vertex 9.9999988e-07 2.0600001e+01 2.0000001e+01
      endloop
   endfacet
   facet normal -1.0000000e+00 -0.0000000e+00 0.0000000e+00
      outer loop
         vertex 9.9999988e-07 2.0600001e+01 2.0000001e+01
         vertex 9.9999988e-07 1.0000000e-06 1.0000000e-06
         vertex 9.9999988e-07 1.0000000e-06 2.0000001e+01
      endloop
   endfacet
   facet normal 0.0000000e+00 1.0000000e+00 -0.0000000e+00
      outer loop
         vertex 2.0600001e+01 2.0600001e+01 1.0000000e-06
         vertex 9.9999988e-07 2.0600001e+01 1.0000000e-06
         vertex 2.0600001e+01 2.0600001e+01 2.0000001e+01
      endloop
   endfacet
   facet normal 0.0000000e+00 1.0000000e+00 -0.0000000e+00
      outer loop
         vertex 2.0600001e+01 2.0600001e+01 2.0000001e+01
         vertex 9.9999988e-07 2.0600001e+01 1.0000000e-06
         vertex 9.9999988e-07 2.0600001e+01 2.0000001e+01
      endloop
   endfacet
   facet normal 0.0000000e+00 -0.0000000e+00 -1.0000000e+00
      outer loop
         vertex 9.9999988e-07 2.0600001e+01 1.0000000e-06
         vertex 2.0600001e+01 2.0600001e+01 1.0000000e-06
         vertex 9.9999988e-07 1.0000000e-06 1.0000000e-06
      endloop
   endfacet
   facet normal 0.0000000e+00 0.0000000e+00 -1.0000000e+00
      outer loop
         vertex 9.9999988e-07 1.0000000e-06 1.0000000e-06
         vertex 2.0600001e+01 2.0600001e+01 1.0000000e-06
         vertex 2.0600001e+01 1.0000000e-06 1.0000000e-06
      endloop
   endfacet
   facet normal 0.0000000e+00 -0.0000000e+00 1.0000000e+00
      outer loop
         vertex 9.9999988e-07 1.0000000e-06 2.0000001e+01
         vertex 2.0600001e+01 1.0000000e-06 2.0000001e+01
         vertex 9.9999988e-07 2.0600001e+01 2.0000001e+01
      endloop
   endfacet
   facet normal -0.0000000e+00 0.0000000e+00 1.0000000e+00
      outer loop
         vertex 9.9999988e-07 2.0600001e+01 2.0000001e+01
         vertex 2.0600001e+01 1.0000000e-06 2.0000001e+01
         vertex 2.0600001e+01 2.0600001e+01 2.0000001e+01
      endloop
   endfacet
endsolid AutoCAD
